<?xml version="1.0" encoding="UTF-8"?>
<svg version="1.1" xmlns="http://www.w3.org/2000/svg" width="287" height="278">
<path d="M0 0 C24.82920766 4.57898713 48.77884756 12.27793157 69.99414062 26.34521484 C70.97769531 25.72775391 71.96125 25.11029297 72.97460938 24.47412109 C93.50676549 11.84339166 114.69159564 4.1574739 138.36914062 0.03271484 C139.34343018 -0.1391333 140.31771973 -0.31098145 141.3215332 -0.48803711 C155.4664478 -2.781451 155.4664478 -2.781451 161.99414062 -1.65478516 C164.25251737 0.22220369 165.68313537 1.72320433 166.99414062 4.34521484 C167.06608931 7.22891817 167.08705771 10.08761148 167.05664062 12.97021484 C167.05212891 13.77201172 167.04761719 14.57380859 167.04296875 15.39990234 C167.03117231 17.3817049 167.01323668 19.36346918 166.99414062 21.34521484 C168.24710938 21.32201172 169.50007812 21.29880859 170.79101562 21.27490234 C172.44205133 21.25614057 174.09309348 21.23794081 175.74414062 21.22021484 C176.56914062 21.20345703 177.39414063 21.18669922 178.24414062 21.16943359 C179.44296875 21.15976562 179.44296875 21.15976562 180.66601562 21.14990234 C181.39916992 21.13942871 182.13232422 21.12895508 182.88769531 21.11816406 C185.39535223 21.38846088 186.89451582 21.9438065 188.99414062 23.34521484 C191.31008197 26.83966117 191.25240807 29.93464798 191.26829529 34.05662537 C191.27353197 34.73030138 191.27876865 35.40397739 191.28416401 36.09806782 C191.2991596 38.35425706 191.29986905 40.61021943 191.30053711 42.86645508 C191.30815879 44.48453148 191.3165863 46.10260426 191.32575989 47.72067261 C191.34770825 52.1152664 191.35650399 56.5097906 191.36158633 60.90443301 C191.36522886 63.64965119 191.37146831 66.39485111 191.37858772 69.14006233 C191.40308133 78.71602302 191.41613437 88.29192951 191.41967773 97.86791992 C191.42331514 106.79646253 191.45322531 115.72466184 191.49508232 124.65309948 C191.52975606 132.31775037 191.54522565 139.98228729 191.54592377 147.64701611 C191.54671745 152.22532046 191.55549778 156.80327497 191.58392143 161.38149834 C191.61005302 165.68673556 191.61233513 169.99133162 191.59626579 174.29661179 C191.59444749 175.87644789 191.60117651 177.45632045 191.6170845 179.0360775 C191.63748733 181.19375362 191.62703172 183.34917391 191.60887146 185.50682068 C191.61088279 186.71378318 191.61289412 187.92074568 191.61496639 189.1642828 C190.81238726 193.2764666 189.21360824 194.75039391 185.99414062 197.34521484 C182.89829028 198.37716496 180.51808663 198.56120342 177.26708984 198.70239258 C176.08670135 198.75592392 174.90631287 198.80945526 173.69015503 198.86460876 C172.40601715 198.91879471 171.12187927 198.97298065 169.79882812 199.02880859 C168.45050853 199.08935035 167.10221165 199.15039996 165.75393677 199.21192932 C160.7496541 199.43918903 155.74498424 199.65738779 150.74029541 199.87548828 C140.48925827 200.32297892 130.24047154 200.79970523 119.99414062 201.34521484 C118.13021667 201.44397919 118.13021667 201.44397919 116.2286377 201.54473877 C112.77623715 201.73862126 109.32691329 201.95992309 105.87695312 202.19287109 C104.36643875 202.2765519 104.36643875 202.2765519 102.82540894 202.36192322 C94.58110671 202.97296565 89.71438798 205.74738307 83.30664062 210.97021484 C77.6921621 215.53758814 74.0563007 216.82302131 66.79492188 216.64990234 C59.25278071 215.82941837 54.28209021 211.14070837 48.87695312 206.14990234 C41.19430617 201.34044043 31.17045404 201.88206086 22.36404419 201.45437622 C20.06379513 201.3425236 17.76424604 201.22051207 15.46459961 201.09692383 C7.33416981 200.66837567 -0.79763588 200.3053858 -8.93347168 199.99624634 C-12.95255574 199.84330525 -16.97127934 199.68165748 -20.99005127 199.52075195 C-23.90829328 199.40905699 -26.82678385 199.31340896 -29.74560547 199.21826172 C-31.54983208 199.14799817 -33.35403287 199.07706735 -35.15820312 199.00537109 C-36.39184349 198.97250755 -36.39184349 198.97250755 -37.65040588 198.9389801 C-42.19214544 198.74060925 -45.37865677 198.35509188 -49.00585938 195.34521484 C-51.92896643 191.36654184 -52.38213336 188.52132117 -52.3868103 183.62744141 C-52.39149027 182.96516163 -52.39617025 182.30288185 -52.40099204 181.62053299 C-52.41292616 179.40876287 -52.40349151 177.19761419 -52.39404297 174.98583984 C-52.39810939 173.39717244 -52.40345167 171.80850786 -52.40997314 170.21984863 C-52.4236442 165.90995849 -52.41834899 161.6002839 -52.40883589 157.29039001 C-52.4012382 152.77903667 -52.40828521 148.26770173 -52.41299438 143.75634766 C-52.41845162 136.18046761 -52.41126117 128.60467532 -52.39697266 121.02880859 C-52.38064619 112.27130221 -52.38593473 103.51400536 -52.40245187 94.75650406 C-52.41606766 87.23619926 -52.41798595 79.71595752 -52.41013587 72.19564438 C-52.40545986 67.70465409 -52.40483251 63.21376227 -52.41474533 58.72277832 C-52.42341407 54.50052588 -52.41739486 50.27854347 -52.40006256 46.05632019 C-52.39609721 44.50714059 -52.39723261 42.95793824 -52.40385056 41.4087677 C-52.41205457 39.29320154 -52.40175947 37.17849946 -52.3868103 35.06298828 C-52.38567923 33.87944763 -52.38454815 32.69590698 -52.3833828 31.47650146 C-51.96240802 27.98481694 -51.11239233 26.13731957 -49.00585938 23.34521484 C-45.90500367 21.27797771 -45.27654256 21.10024061 -41.77539062 21.14990234 C-40.97294922 21.15634766 -40.17050781 21.16279297 -39.34375 21.16943359 C-38.51037109 21.18619141 -37.67699219 21.20294922 -36.81835938 21.22021484 C-35.55088867 21.23375 -35.55088867 21.23375 -34.2578125 21.24755859 C-32.17370695 21.27110781 -30.0897472 21.30697837 -28.00585938 21.34521484 C-28.06386719 20.10384766 -28.121875 18.86248047 -28.18164062 17.58349609 C-28.22855175 15.9416067 -28.27405046 14.29967652 -28.31835938 12.65771484 C-28.36025391 11.84109375 -28.40214844 11.02447266 -28.4453125 10.18310547 C-28.53318085 5.84240922 -28.41777004 3.91763874 -25.81054688 0.29443359 C-18.72017024 -4.63327942 -8.07632863 -1.41012562 0 0 Z M-13.00585938 14.34521484 C-13.00585938 59.88521484 -13.00585938 105.42521484 -13.00585938 152.34521484 C-7.39585938 153.00521484 -1.78585938 153.66521484 3.99414062 154.34521484 C24.81005635 157.75004864 45.09354926 164.25828672 60.67382812 179.13037109 C61.81775909 180.45806546 61.81775909 180.45806546 62.99414062 180.34521484 C63.22788671 162.21263993 63.4041528 144.08045667 63.51226234 125.9467001 C63.56379733 117.52653539 63.63403629 109.10730747 63.74853516 100.68774414 C63.84830208 93.34797237 63.91274403 86.00887902 63.93502557 78.66844803 C63.94804872 74.78236233 63.97857913 70.89821713 64.05144119 67.01275444 C64.11952744 63.35217383 64.14021975 59.69432438 64.12521744 56.0331707 C64.12926383 54.05533795 64.18298064 52.07780045 64.23834229 50.10073853 C64.23854724 43.45911613 64.23854724 43.45911613 60.83810043 38.02879524 C58.29243971 36.21109305 55.79151558 34.73807722 52.99414062 33.34521484 C52.24045511 32.93472114 51.4867696 32.52422743 50.71024513 32.10129452 C48.77249468 31.05851658 46.81078608 30.12833948 44.80664062 29.22021484 C44.07598389 28.88530029 43.34532715 28.55038574 42.5925293 28.20532227 C31.96488725 23.43295285 21.12143895 20.24620885 9.80664062 17.59521484 C8.91630127 17.38421143 8.02596191 17.17320801 7.10864258 16.95581055 C0.28149189 15.42730653 -5.88303007 14.93878395 -13.00585938 14.34521484 Z M91.99414062 30.34521484 C83.43876738 34.5652425 83.43876738 34.5652425 75.99414062 40.34521484 C75.69492634 42.88809693 75.69492634 42.88809693 75.75363159 45.90066528 C75.75088226 47.08139618 75.74813293 48.26212708 75.74530029 49.4786377 C75.75249084 50.78055054 75.7596814 52.08246338 75.76708984 53.42382812 C75.76765376 54.80341585 75.76733778 56.18300418 75.76620483 57.56259155 C75.76562955 61.31447184 75.77741216 65.06622499 75.79135275 68.81807566 C75.80383092 72.7365292 75.8050283 76.65498546 75.80740356 80.57345581 C75.81362692 87.99660415 75.83004927 95.41969378 75.85010254 102.84281623 C75.87243497 111.29251222 75.88344828 119.74221097 75.89349341 128.1919291 C75.91441479 145.57639168 75.94960734 162.96079706 75.99414062 180.34521484 C76.53316513 179.93928101 77.07218964 179.53334717 77.62754822 179.1151123 C78.34012283 178.57938599 79.05269745 178.04365967 79.78686523 177.49169922 C80.49088974 176.96201538 81.19491425 176.43233154 81.92027283 175.88659668 C101.20535441 161.55314954 121.38489537 156.18425123 144.94750977 153.2956543 C146.30090454 153.12876099 146.30090454 153.12876099 147.68164062 152.95849609 C148.48988281 152.8635083 149.298125 152.76852051 150.13085938 152.6706543 C152.00341392 152.52757519 152.00341392 152.52757519 152.99414062 151.34521484 C153.09046108 149.58628054 153.11601572 147.82344326 153.11439514 146.06187439 C153.11576981 144.91617477 153.11714447 143.77047516 153.11856079 142.59005737 C153.11496552 141.32195221 153.11137024 140.05384705 153.10766602 138.74731445 C153.10738414 137.40728253 153.10754188 136.06725046 153.10810852 134.72721863 C153.10839649 131.07862046 153.10249983 127.4300549 153.09553456 123.78146434 C153.08930097 119.97243968 153.08869722 116.16341435 153.08750916 112.35438538 C153.08439586 105.1366373 153.07618249 97.9189043 153.06615967 90.70116287 C153.05499848 82.48606227 153.04948807 74.27096097 153.04446423 66.05585468 C153.03399987 49.15229934 153.01640046 32.24875868 152.99414062 15.34521484 C136.33660758 9.79270383 107.10126407 23.03327788 91.99414062 30.34521484 Z " fill="#5347BF" transform="translate(72.005859375,33.65478515625)"/>
<path d="M0 0 C5.5578049 4.97918412 8.45382415 12.95662076 9.875 20.0625 C9.875 24.6825 9.875 29.3025 9.875 34.0625 C-3.985 34.0625 -17.845 34.0625 -32.125 34.0625 C-28.72458399 42.3313987 -28.72458399 42.3313987 -23.125 48.0625 C-17.64031732 49.89072756 -12.07904302 49.80858915 -6.6875 47.75 C-4.52113887 46.32337194 -2.80654736 45.02430526 -1.125 43.0625 C2.31095166 44.58958963 4.99412454 46.66177045 7.875 49.0625 C7.875 51.1875 7.875 51.1875 6.875 54.0625 C-0.81697358 61.41300746 -8.72995611 62.92637443 -19.125 63.0625 C-27.05716629 62.51165512 -33.38192787 58.86265601 -38.91796875 53.2421875 C-46.65385678 43.8063142 -46.99170086 32.74515267 -46.125 21.0625 C-45.01065272 14.49735322 -42.46650827 8.19207083 -38.125 3.0625 C-37.465 3.0625 -36.805 3.0625 -36.125 3.0625 C-36.125 2.4025 -36.125 1.7425 -36.125 1.0625 C-34.71171871 0.24412558 -33.29421654 -0.56696219 -31.875 -1.375 C-30.69164062 -2.05369141 -30.69164062 -2.05369141 -29.484375 -2.74609375 C-19.85071597 -7.61077257 -8.78357781 -5.44581824 0 0 Z M-27.8125 12.25 C-30.56817039 15.60149101 -31.22134893 17.87284502 -32.125 22.0625 C-28.91717914 23.01626567 -26.04312604 23.17871181 -22.703125 23.16015625 C-21.67832031 23.15693359 -20.65351563 23.15371094 -19.59765625 23.15039062 C-18.00244141 23.13782227 -18.00244141 23.13782227 -16.375 23.125 C-15.29605469 23.12048828 -14.21710938 23.11597656 -13.10546875 23.11132812 C-10.44525617 23.09955727 -7.78515635 23.08311399 -5.125 23.0625 C-4.05748312 19.75828108 -4.13557396 19.03077813 -5.3125 15.5 C-7.41030227 11.38804442 -7.41030227 11.38804442 -11.125 9.0625 C-17.92660747 7.54394223 -22.28634529 7.7519671 -27.8125 12.25 Z " fill="#4F43BF" transform="translate(205.125,98.9375)"/>
<path d="M0 0 C24.82920766 4.57898713 48.77884756 12.27793157 69.99414062 26.34521484 C70.97769531 25.72775391 71.96125 25.11029297 72.97460938 24.47412109 C93.50676549 11.84339166 114.69159564 4.1574739 138.36914062 0.03271484 C139.34343018 -0.1391333 140.31771973 -0.31098145 141.3215332 -0.48803711 C155.4664478 -2.781451 155.4664478 -2.781451 161.99414062 -1.65478516 C164.25251737 0.22220369 165.68313537 1.72320433 166.99414062 4.34521484 C167.06608931 7.22891817 167.08705771 10.08761148 167.05664062 12.97021484 C167.05212891 13.77201172 167.04761719 14.57380859 167.04296875 15.39990234 C167.03117231 17.3817049 167.01323668 19.36346918 166.99414062 21.34521484 C168.24710938 21.32201172 169.50007812 21.29880859 170.79101562 21.27490234 C172.44205133 21.25614057 174.09309348 21.23794081 175.74414062 21.22021484 C176.56914062 21.20345703 177.39414063 21.18669922 178.24414062 21.16943359 C179.44296875 21.15976562 179.44296875 21.15976562 180.66601562 21.14990234 C181.39916992 21.13942871 182.13232422 21.12895508 182.88769531 21.11816406 C185.39535223 21.38846088 186.89451582 21.9438065 188.99414062 23.34521484 C191.31008197 26.83966117 191.25240807 29.93464798 191.26829529 34.05662537 C191.27353197 34.73030138 191.27876865 35.40397739 191.28416401 36.09806782 C191.2991596 38.35425706 191.29986905 40.61021943 191.30053711 42.86645508 C191.30815879 44.48453148 191.3165863 46.10260426 191.32575989 47.72067261 C191.34770825 52.1152664 191.35650399 56.5097906 191.36158633 60.90443301 C191.36522886 63.64965119 191.37146831 66.39485111 191.37858772 69.14006233 C191.40308133 78.71602302 191.41613437 88.29192951 191.41967773 97.86791992 C191.42331514 106.79646253 191.45322531 115.72466184 191.49508232 124.65309948 C191.52975606 132.31775037 191.54522565 139.98228729 191.54592377 147.64701611 C191.54671745 152.22532046 191.55549778 156.80327497 191.58392143 161.38149834 C191.61005302 165.68673556 191.61233513 169.99133162 191.59626579 174.29661179 C191.59444749 175.87644789 191.60117651 177.45632045 191.6170845 179.0360775 C191.63748733 181.19375362 191.62703172 183.34917391 191.60887146 185.50682068 C191.61088279 186.71378318 191.61289412 187.92074568 191.61496639 189.1642828 C190.81238726 193.2764666 189.21360824 194.75039391 185.99414062 197.34521484 C182.89829028 198.37716496 180.51808663 198.56120342 177.26708984 198.70239258 C176.08670135 198.75592392 174.90631287 198.80945526 173.69015503 198.86460876 C172.40601715 198.91879471 171.12187927 198.97298065 169.79882812 199.02880859 C168.45050853 199.08935035 167.10221165 199.15039996 165.75393677 199.21192932 C160.7496541 199.43918903 155.74498424 199.65738779 150.74029541 199.87548828 C140.48925827 200.32297892 130.24047154 200.79970523 119.99414062 201.34521484 C118.13021667 201.44397919 118.13021667 201.44397919 116.2286377 201.54473877 C112.77623715 201.73862126 109.32691329 201.95992309 105.87695312 202.19287109 C104.36643875 202.2765519 104.36643875 202.2765519 102.82540894 202.36192322 C94.58110671 202.97296565 89.71438798 205.74738307 83.30664062 210.97021484 C77.6921621 215.53758814 74.0563007 216.82302131 66.79492188 216.64990234 C59.25278071 215.82941837 54.28209021 211.14070837 48.87695312 206.14990234 C41.19430617 201.34044043 31.17045404 201.88206086 22.36404419 201.45437622 C20.06379513 201.3425236 17.76424604 201.22051207 15.46459961 201.09692383 C7.33416981 200.66837567 -0.79763588 200.3053858 -8.93347168 199.99624634 C-12.95255574 199.84330525 -16.97127934 199.68165748 -20.99005127 199.52075195 C-23.90829328 199.40905699 -26.82678385 199.31340896 -29.74560547 199.21826172 C-31.54983208 199.14799817 -33.35403287 199.07706735 -35.15820312 199.00537109 C-36.39184349 198.97250755 -36.39184349 198.97250755 -37.65040588 198.9389801 C-42.19214544 198.74060925 -45.37865677 198.35509188 -49.00585938 195.34521484 C-51.92896643 191.36654184 -52.38213336 188.52132117 -52.3868103 183.62744141 C-52.39149027 182.96516163 -52.39617025 182.30288185 -52.40099204 181.62053299 C-52.41292616 179.40876287 -52.40349151 177.19761419 -52.39404297 174.98583984 C-52.39810939 173.39717244 -52.40345167 171.80850786 -52.40997314 170.21984863 C-52.4236442 165.90995849 -52.41834899 161.6002839 -52.40883589 157.29039001 C-52.4012382 152.77903667 -52.40828521 148.26770173 -52.41299438 143.75634766 C-52.41845162 136.18046761 -52.41126117 128.60467532 -52.39697266 121.02880859 C-52.38064619 112.27130221 -52.38593473 103.51400536 -52.40245187 94.75650406 C-52.41606766 87.23619926 -52.41798595 79.71595752 -52.41013587 72.19564438 C-52.40545986 67.70465409 -52.40483251 63.21376227 -52.41474533 58.72277832 C-52.42341407 54.50052588 -52.41739486 50.27854347 -52.40006256 46.05632019 C-52.39609721 44.50714059 -52.39723261 42.95793824 -52.40385056 41.4087677 C-52.41205457 39.29320154 -52.40175947 37.17849946 -52.3868103 35.06298828 C-52.38567923 33.87944763 -52.38454815 32.69590698 -52.3833828 31.47650146 C-51.96240802 27.98481694 -51.11239233 26.13731957 -49.00585938 23.34521484 C-45.90500367 21.27797771 -45.27654256 21.10024061 -41.77539062 21.14990234 C-40.97294922 21.15634766 -40.17050781 21.16279297 -39.34375 21.16943359 C-38.51037109 21.18619141 -37.67699219 21.20294922 -36.81835938 21.22021484 C-35.55088867 21.23375 -35.55088867 21.23375 -34.2578125 21.24755859 C-32.17370695 21.27110781 -30.0897472 21.30697837 -28.00585938 21.34521484 C-28.06386719 20.10384766 -28.121875 18.86248047 -28.18164062 17.58349609 C-28.22855175 15.9416067 -28.27405046 14.29967652 -28.31835938 12.65771484 C-28.36025391 11.84109375 -28.40214844 11.02447266 -28.4453125 10.18310547 C-28.53318085 5.84240922 -28.41777004 3.91763874 -25.81054688 0.29443359 C-18.72017024 -4.63327942 -8.07632863 -1.41012562 0 0 Z M-24.75854492 1.58374023 C-26.31213664 3.77774381 -26.42784728 5.12045433 -26.51757812 7.79443359 C-26.55302734 8.64199219 -26.58847656 9.48955078 -26.625 10.36279297 C-26.64755859 11.24386719 -26.67011719 12.12494141 -26.69335938 13.03271484 C-26.72751953 13.92539062 -26.76167969 14.81806641 -26.796875 15.73779297 C-26.87931586 17.94014155 -26.94847488 20.14209422 -27.00585938 22.34521484 C-27.83778809 22.3592334 -27.83778809 22.3592334 -28.68652344 22.37353516 C-31.21052418 22.42737206 -33.73269751 22.51098738 -36.25585938 22.59521484 C-37.12855469 22.60939453 -38.00125 22.62357422 -38.90039062 22.63818359 C-40.16689453 22.68652344 -40.16689453 22.68652344 -41.45898438 22.73583984 C-42.2340332 22.75678711 -43.00908203 22.77773438 -43.80761719 22.79931641 C-46.91254153 23.57037492 -48.02201038 24.85022056 -50.00585938 27.34521484 C-50.6103052 30.46857132 -50.6103052 30.46857132 -50.52052307 34.0186615 C-50.5274686 34.68825396 -50.53441413 35.35784641 -50.54157013 36.04772955 C-50.55985982 38.2903784 -50.54957132 40.5319717 -50.53930664 42.7746582 C-50.5463642 44.38288668 -50.55510853 45.99110851 -50.56541443 47.59931946 C-50.58793724 51.96715623 -50.58496195 56.33463115 -50.57609296 60.70250392 C-50.57098659 64.34823496 -50.5782728 67.99389778 -50.58556503 71.63962179 C-50.60257337 80.24003299 -50.59898899 88.8402668 -50.58227539 97.44067383 C-50.56535306 106.3147173 -50.58118788 115.18826892 -50.61349827 124.06225866 C-50.64018513 131.68022584 -50.64747263 139.29803983 -50.63898319 146.91604906 C-50.6340513 151.46637515 -50.63628358 156.01640526 -50.65677071 160.56669426 C-50.67511372 164.84571597 -50.66918653 169.12402968 -50.6445713 173.40301323 C-50.63955894 174.97315619 -50.64306432 176.54335296 -50.65571976 178.11345291 C-50.67163784 180.25804526 -50.65671661 182.40030252 -50.63404846 184.54478455 C-50.63346215 185.7443727 -50.63287584 186.94396086 -50.63227177 188.17990017 C-49.82253758 192.27155533 -48.21181643 193.76403984 -45.00585938 196.34521484 C-42.25563559 197.15422589 -42.25563559 197.15422589 -39.26708984 197.15649414 C-38.1333493 197.20972336 -36.99960876 197.26295258 -35.83151245 197.3177948 C-34.60771881 197.3513356 -33.38392517 197.3848764 -32.12304688 197.41943359 C-30.16032759 197.50323009 -28.19760843 197.58702955 -26.23489571 197.6709795 C-23.47672685 197.78278387 -20.71799172 197.8724401 -17.95904541 197.96264648 C-14.57825432 198.07663363 -11.19834622 198.21166844 -7.81835938 198.34716797 C-7.15652271 198.3735541 -6.49468605 198.39994022 -5.81279373 198.42712593 C1.45685512 198.71817676 8.72592097 199.02009658 15.99414062 199.34521484 C17.27671753 199.40147034 18.55929443 199.45772583 19.8807373 199.51568604 C23.56373594 199.68924993 27.2432462 199.89634132 30.92382812 200.11474609 C32.01309601 200.16314133 33.10236389 200.21153656 34.22463989 200.26139832 C43.00008239 200.83846109 49.07293054 203.56343943 55.55664062 209.47021484 C59.53466542 213.01743971 63.63197349 215.19063245 69.03320312 215.43896484 C77.06279906 214.81891883 82.63793737 210.01720933 88.49023438 204.93115234 C95.25195815 200.64837566 103.86659279 200.79933239 111.62304688 200.30615234 C112.84455948 200.22360199 114.06607208 200.14105164 115.32460022 200.05599976 C124.21891204 199.47413914 133.11718211 199.03002411 142.02148438 198.63427734 C143.86645004 198.5508609 143.86645004 198.5508609 145.74868774 198.46575928 C150.7661225 198.24018914 155.78332266 198.01512477 160.80200195 197.81884766 C164.54279917 197.67019103 168.28190238 197.4980882 172.02148438 197.32177734 C173.15464584 197.28307526 174.28780731 197.24437317 175.45530701 197.20449829 C176.50573685 197.15119354 177.55616669 197.09788879 178.63842773 197.04296875 C180.01399086 196.98539902 180.01399086 196.98539902 181.41734314 196.92666626 C184.88249573 196.14475853 186.48765017 194.85732389 188.99414062 192.34521484 C189.74272634 189.20992956 189.74272634 189.20992956 189.62232971 185.6270752 C189.6294241 184.95269362 189.63651849 184.27831204 189.64382786 183.58349466 C189.66142603 181.32445125 189.64329651 179.06712445 189.62524414 176.80810547 C189.63038233 175.18840247 189.63766286 173.56870505 189.64692688 171.94902039 C189.66546212 167.55015857 189.65248919 163.15190184 189.63283658 158.75306511 C189.61646615 154.15181636 189.62526073 149.55060642 189.63035583 144.94934082 C189.6348786 137.22198812 189.61899569 129.49487734 189.59106445 121.76757812 C189.55901167 112.8310774 189.55902765 103.89501302 189.57627922 94.95848131 C189.59213766 86.36526545 189.58541517 77.77220971 189.56834221 69.17900085 C189.56146583 65.5203577 189.56251016 61.86184267 189.56988716 58.20320129 C189.57754288 53.89551028 189.56544755 49.58831642 189.53803825 45.28071022 C189.53114579 43.69887073 189.5310657 42.11698489 189.53825378 40.53514671 C189.54693004 38.37732604 189.53102662 36.22104617 189.50880432 34.06335449 C189.5059974 32.8554702 189.50319048 31.64758591 189.5002985 30.40309906 C188.8953279 26.74825113 187.89789959 25.57174746 184.99414062 23.34521484 C182.79322384 22.7151389 182.79322384 22.7151389 180.44726562 22.73583984 C179.60292969 22.70361328 178.75859375 22.67138672 177.88867188 22.63818359 C177.01597656 22.62400391 176.14328125 22.60982422 175.24414062 22.59521484 C173.91189453 22.55074219 173.91189453 22.55074219 172.55273438 22.50537109 C170.36644613 22.43484567 168.18121294 22.38206847 165.99414062 22.34521484 C165.95546875 20.46576172 165.95546875 20.46576172 165.91601562 18.54833984 C165.85972894 16.89726361 165.80238172 15.24622329 165.74414062 13.59521484 C165.72996094 12.77021484 165.71578125 11.94521484 165.70117188 11.09521484 C165.55183396 7.39163457 165.37400837 4.97138087 163.42773438 1.76318359 C160.01719576 -0.22401627 157.09965129 0.03437857 153.30664062 0.40771484 C152.17560913 0.50125244 152.17560913 0.50125244 151.02172852 0.59667969 C127.97837378 2.69087663 102.06732412 8.14043954 82.62695312 21.22021484 C71.61855465 28.57242047 71.61855465 28.57242047 67.00585938 27.92724609 C64.08027648 26.31059066 61.61477199 24.41880327 58.99414062 22.34521484 C56.69577466 20.97163518 54.41583005 19.66458102 52.05664062 18.40771484 C51.43442627 18.07175293 50.81221191 17.73579102 50.17114258 17.38964844 C33.81429779 8.82886619 15.27108994 4.2881831 -2.88085938 1.59521484 C-3.73671631 1.46727539 -4.59257324 1.33933594 -5.47436523 1.20751953 C-15.48533366 -0.71282547 -15.48533366 -0.71282547 -24.75854492 1.58374023 Z " fill="#3025B7" transform="translate(72.005859375,33.65478515625)"/>
<path d="M0 0 C25.91304156 0.07621483 52.26984324 9.07911833 74 23 C75.06019663 23.61906204 75.06019663 23.61906204 76.14181137 24.25063038 C78 26 78 26 78.49219131 28.58681011 C78.48666056 30.15339729 78.48666056 30.15339729 78.48101807 31.75163269 C78.48651672 32.95056656 78.49201538 34.14950043 78.49768066 35.38476562 C78.48329956 36.70178467 78.46891846 38.01880371 78.45410156 39.37573242 C78.45297339 40.77517159 78.45360635 42.17461312 78.45587158 43.5740509 C78.45702088 47.37561168 78.43347724 51.17666927 78.40557575 54.97811294 C78.38059775 58.94992645 78.37822296 62.92175105 78.37347412 66.89363098 C78.3610337 74.41599398 78.32819782 81.93812489 78.28807616 89.46038562 C78.24339149 98.02374194 78.22137976 106.58710925 78.20129442 115.15055311 C78.159466 132.76716707 78.08909337 150.38356488 78 168 C77.01 168.33 76.02 168.66 75 169 C72.79296875 167.41015625 72.79296875 167.41015625 70.1875 165.0625 C51.55291373 149.29665924 28.37953585 143.80093311 4.52246094 141.5949707 C-0.9102709 141.0897291 -0.9102709 141.0897291 -2 140 C-2.09639184 138.20305962 -2.12187425 136.40229107 -2.12025452 134.60276794 C-2.12162918 133.43182587 -2.12300385 132.26088379 -2.12442017 131.05445862 C-2.12082489 129.75830124 -2.11722961 128.46214386 -2.11352539 127.12670898 C-2.11324352 125.75712079 -2.11340125 124.38753244 -2.1139679 123.01794434 C-2.11425588 119.28877052 -2.10835909 115.55962859 -2.10139394 111.83046222 C-2.09516047 107.93735587 -2.09455661 104.04424887 -2.09336853 100.15113831 C-2.09025519 92.77401854 -2.08204178 85.39691351 -2.07201904 78.01980025 C-2.06085797 69.62332457 -2.05534747 61.22684821 -2.05032361 52.83036697 C-2.03985916 35.55356944 -2.02225968 18.27678628 -2 1 C-1.01 1.495 -1.01 1.495 0 2 C0 47.21 0 92.42 0 139 C3.63 139 7.26 139 11 139 C14.28979492 139.36376953 14.28979492 139.36376953 16.98046875 139.8828125 C17.99125488 140.07713867 19.00204102 140.27146484 20.04345703 140.47167969 C21.08099121 140.68727539 22.11852539 140.90287109 23.1875 141.125 C24.28175293 141.3509082 25.37600586 141.57681641 26.50341797 141.80957031 C42.98800823 145.36159256 58.44068733 151.3406033 71.21875 162.65258789 C71.92966797 163.28024551 72.64058594 163.90790314 73.37304688 164.55458069 C74.17838867 165.27006325 74.17838867 165.27006325 75 166 C75.2571242 147.99786652 75.45101415 129.99621037 75.56993389 111.99263668 C75.62662223 103.63289396 75.70388284 95.27429297 75.82983398 86.9152832 C75.93958045 79.62824776 76.01046391 72.34203913 76.03497344 65.05420023 C76.04929914 61.19587329 76.08287774 57.33991124 76.16303062 53.48234367 C76.23793332 49.84787082 76.26068747 46.2167258 76.24418449 42.58155441 C76.24863533 40.61795729 76.30772419 38.65472 76.36862183 36.69206238 C76.32300175 33.13451647 76.17541291 30.36078463 75 27 C71.69711475 23.80692627 68.15168504 21.90250311 64 20 C63.32217311 19.63892119 62.64434622 19.27784239 61.94597912 18.9058218 C42.97294507 8.80082187 21.14768664 3.98922997 0 1 C0 0.67 0 0.34 0 0 Z " fill="#2114B2" transform="translate(59,47)"/>
<path d="M0 0 C3.07121006 3.88416228 3.37935557 6.96414472 3.39440918 11.83166504 C3.40050028 12.50619547 3.40659139 13.18072591 3.41286707 13.87569666 C3.42947484 16.12889232 3.42472471 18.38152149 3.41992188 20.63476562 C3.42726342 22.2529916 3.4358499 23.87121233 3.44558716 25.48942566 C3.46780029 29.87986754 3.47073404 34.27012174 3.46883965 38.66061211 C3.46871996 42.32626783 3.47728303 45.99188375 3.48561716 49.6575284 C3.50484962 58.30442745 3.50773525 66.95122995 3.50097656 75.59814453 C3.49433193 84.51933971 3.51721737 93.44012184 3.55429029 102.36123323 C3.5849695 110.02167029 3.59634938 117.68197433 3.59245348 125.3424716 C3.59038454 129.91739057 3.59588773 134.49198795 3.62034607 139.06684875 C3.6425821 143.36801928 3.64076204 147.66851694 3.62041855 151.96969032 C3.61700315 153.54790582 3.62212049 155.12616634 3.63640213 156.70432091 C3.65456206 158.85977909 3.64187475 161.01294636 3.62145996 163.16833496 C3.62217247 164.37399864 3.62288498 165.57966232 3.62361908 166.82186127 C2.81743669 170.93039412 1.21691925 172.4063105 -2 175 C-5.09585034 176.03195011 -7.476054 176.21598858 -10.72705078 176.35717773 C-11.90743927 176.41070908 -13.08782776 176.46424042 -14.3039856 176.51939392 C-15.58812347 176.57357986 -16.87226135 176.62776581 -18.1953125 176.68359375 C-19.54363209 176.74413551 -20.89192897 176.80518512 -22.24020386 176.86671448 C-27.24448653 177.09397419 -32.24915638 177.31217295 -37.25384521 177.53027344 C-47.50488236 177.97776407 -57.75366909 178.45449039 -68 179 C-69.86392395 179.09876434 -69.86392395 179.09876434 -71.76550293 179.19952393 C-75.21790347 179.39340642 -78.66722733 179.61470824 -82.1171875 179.84765625 C-83.12419708 179.90344345 -84.13120667 179.95923065 -85.16873169 180.01670837 C-93.41303391 180.62775081 -98.27975264 183.40216822 -104.6875 188.625 C-110.30197853 193.1923733 -113.93783992 194.47780647 -121.19921875 194.3046875 C-128.74135992 193.48420352 -133.71205041 188.79549352 -139.1171875 183.8046875 C-147.81129507 178.3620348 -160.10192737 179.39842377 -170.0625 178.9375 C-173.24107881 178.78370296 -176.41942416 178.62563958 -179.59765625 178.46484375 C-180.34649078 178.42741058 -181.09532532 178.38997742 -181.86685181 178.35140991 C-186.94460649 178.08635543 -191.95924849 177.6585028 -197 177 C-197 176.67 -197 176.34 -197 176 C-183.81513537 175.77579694 -170.66508886 175.8795573 -157.5 176.6875 C-156.3864917 176.74083496 -155.2729834 176.79416992 -154.12573242 176.84912109 C-145.19287923 177.47368245 -139.04552719 180.10983703 -132.4375 186.125 C-128.45947521 189.67222487 -124.36216713 191.8454176 -118.9609375 192.09375 C-110.93134157 191.47370398 -105.35620326 186.67199448 -99.50390625 181.5859375 C-92.74197972 177.3030324 -84.13146258 177.45646915 -76.375 176.96484375 C-75.15369385 176.88249985 -73.9323877 176.80015594 -72.67407227 176.71531677 C-63.76638749 176.13228314 -54.85429554 175.67151784 -45.9375 175.25390625 C-44.70515625 175.19592865 -43.4728125 175.13795105 -42.203125 175.07821655 C-37.17461828 174.84378053 -32.14617432 174.61099587 -27.11669922 174.39819336 C-23.3687678 174.2376758 -19.62199553 174.05980082 -15.875 173.87890625 C-14.73667725 173.83504288 -13.59835449 173.7911795 -12.42553711 173.74598694 C-11.37503174 173.69260666 -10.32452637 173.63922638 -9.2421875 173.58422852 C-8.3229248 173.54362808 -7.40366211 173.50302765 -6.45654297 173.4611969 C-3.42823338 172.89265525 -2.17916649 172.18632927 0 170 C0.60314775 166.95655261 0.60314775 166.95655261 0.50120544 163.39538574 C0.50673984 162.72115303 0.51227424 162.04692031 0.51797634 161.3522563 C0.53161399 159.08798068 0.51659817 156.82480149 0.50170898 154.56054688 C0.50549106 152.93937206 0.51099018 151.31820046 0.51808167 149.69703674 C0.53206822 145.28999187 0.52084423 140.883336 0.50437045 136.47631264 C0.49054258 131.86925559 0.49697744 127.26222166 0.50050354 122.65515137 C0.50320746 114.91766066 0.48971448 107.18032493 0.46655273 99.44287109 C0.43994183 90.49109173 0.43819521 81.53957153 0.4499411 72.58776617 C0.46071191 63.98442607 0.4545373 55.38117992 0.44038582 46.77784729 C0.43461995 43.11281622 0.4347134 39.44785376 0.43945122 35.78282166 C0.44421568 31.46866188 0.43414153 27.15478669 0.41249657 22.84068108 C0.40692125 21.25519203 0.40647021 19.66967568 0.41144943 18.08418465 C0.41738377 15.92400966 0.40493415 13.76471022 0.38768005 11.60461426 C0.38525016 10.39450935 0.38282026 9.18440445 0.38031673 7.9376297 C0.24327971 5.00940005 0.24327971 5.00940005 -1.3939352 3.11423492 C-3.48767793 1.6616651 -4.91230146 1.5734127 -7.44921875 1.48828125 C-8.29677734 1.45283203 -9.14433594 1.41738281 -10.01757812 1.38085938 C-11.33918945 1.34702148 -11.33918945 1.34702148 -12.6875 1.3125 C-13.58017578 1.27833984 -14.47285156 1.24417969 -15.39257812 1.20898438 C-17.59492671 1.12654352 -19.79687938 1.05738449 -22 1 C-22 0.67 -22 0.34 -22 0 C-5.65048833 -1.49258182 -5.65048833 -1.49258182 0 0 Z " fill="#1E0EB1" transform="translate(260,56)"/>
<path d="M0 0 C-3.01989452 3.01989452 -6.73420798 2.75696479 -10.8125 3.25 C-30.47810548 5.93888685 -60.25742075 12.25742075 -75 27 C-75.09639184 28.79694038 -75.12187425 30.59770893 -75.12025452 32.39723206 C-75.12162918 33.56817413 -75.12300385 34.73911621 -75.12442017 35.94554138 C-75.12082489 37.24169876 -75.11722961 38.53785614 -75.11352539 39.87329102 C-75.11324352 41.24287921 -75.11340125 42.61246756 -75.1139679 43.98205566 C-75.11425588 47.71122948 -75.10835909 51.44037141 -75.10139394 55.16953778 C-75.09516047 59.06264413 -75.09455661 62.95575113 -75.09336853 66.84886169 C-75.09025519 74.22598146 -75.08204178 81.60308649 -75.07201904 88.98019975 C-75.06085797 97.37667543 -75.05534747 105.77315179 -75.05032361 114.16963303 C-75.03985916 131.44643056 -75.02225968 148.72321372 -75 166 C-74.26104492 165.38729248 -73.52208984 164.77458496 -72.76074219 164.14331055 C-71.78266602 163.33676025 -70.80458984 162.53020996 -69.796875 161.69921875 C-68.34812988 160.50171997 -68.34812988 160.50171997 -66.87011719 159.2800293 C-50.61653136 146.36813426 -30.55294963 142.02651991 -10.44140625 139.38671875 C-9.43243286 139.2518103 -8.42345947 139.11690186 -7.38391113 138.97790527 C-4.92295247 138.64924304 -2.46166406 138.32332883 0 138 C-0.00092179 137.3486184 -0.00184359 136.6972368 -0.00279331 136.02611637 C-0.02491206 120.15038856 -0.0414425 104.27466615 -0.05181217 88.39892673 C-0.05696061 80.72143054 -0.06397557 73.04394465 -0.07543945 65.36645508 C-0.08543073 58.67197488 -0.09186399 51.97750216 -0.09408849 45.28301471 C-0.09538807 41.74088328 -0.09842602 38.1987732 -0.10573006 34.65664864 C-0.11383232 30.69500463 -0.11398828 26.73338121 -0.11352539 22.77172852 C-0.11712067 21.60719147 -0.12071594 20.44265442 -0.12442017 19.24282837 C-0.1166381 13.07575243 0.18581965 7.11458185 1 1 C1.33 1 1.66 1 2 1 C2.02332815 19.10607616 2.04097876 37.21214843 2.05181217 55.31823635 C2.05697531 63.72461384 2.06401834 72.13098201 2.07543945 80.53735352 C2.08538575 87.86167932 2.0918533 95.18599837 2.09408849 102.51033074 C2.09539569 106.39090787 2.09848212 110.2714657 2.10573006 114.15203667 C2.11248942 117.80039557 2.11461713 121.44872711 2.11310768 125.09709167 C2.11351637 127.08288419 2.118912 129.0686737 2.12442017 131.05445862 C2.1230455 132.2254007 2.12167084 133.39634277 2.12025452 134.60276794 C2.12117631 135.62687995 2.1220981 136.65099195 2.12304783 137.70613766 C2 140 2 140 1 141 C-0.4685787 141.23834094 -1.94637596 141.42036002 -3.42578125 141.578125 C-29.24778664 144.51396601 -55.17119052 149.52489271 -74 169 C-74.99 168.67 -75.98 168.34 -77 168 C-77.39773057 149.52866467 -77.69718758 131.05820165 -77.88080692 112.58346748 C-77.96834677 104.00438149 -78.08759488 95.42796055 -78.2824707 86.85058594 C-78.45231811 79.3712382 -78.56167712 71.89382015 -78.59950441 64.41259754 C-78.62161144 60.45273933 -78.67322781 56.49839903 -78.79741096 52.54031754 C-79.52139377 28.54360068 -79.52139377 28.54360068 -75.38221359 22.72634125 C-71.49517295 19.19959428 -67.20193718 17.27709845 -62.23351097 15.72341633 C-59.20669273 14.74305412 -56.39180674 13.40689054 -53.51827335 12.0509882 C-37.37471909 4.47038178 -17.80459448 -0.22283598 0 0 Z " fill="#1A0CB0" transform="translate(224,47)"/>
<path d="M0 0 C5.5578049 4.97918412 8.45382415 12.95662076 9.875 20.0625 C9.875 24.6825 9.875 29.3025 9.875 34.0625 C-3.985 34.0625 -17.845 34.0625 -32.125 34.0625 C-32.125 33.4025 -32.125 32.7425 -32.125 32.0625 C-18.925 32.0625 -5.725 32.0625 7.875 32.0625 C7.02551395 15.61012264 7.02551395 15.61012264 -1.08984375 3.234375 C-8.02271945 -2.29126895 -14.38452629 -2.69098911 -23.125 -1.9375 C-30.30893188 -0.27195155 -35.21560819 2.79525625 -39.125 9.0625 C-39.5375 9.71347656 -39.95 10.36445312 -40.375 11.03515625 C-44.974545 20.09051047 -44.5896921 32.67315435 -42.359375 42.40234375 C-39.23621515 50.64401557 -34.45553063 55.15421908 -26.546875 58.88671875 C-17.8409976 61.87812183 -9.34812271 60.89653569 -1.11328125 57.03515625 C-0.45714844 56.71417969 0.19898438 56.39320313 0.875 56.0625 C1.865 55.7325 2.855 55.4025 3.875 55.0625 C4.205 53.4125 4.535 51.7625 4.875 50.0625 C1.905 47.5875 1.905 47.5875 -1.125 45.0625 C-1.125 45.7225 -1.125 46.3825 -1.125 47.0625 C-7.45260166 51.70274121 -12.40719422 52.89653989 -20.125 52.0625 C-25.48979164 50.26050665 -29.06021852 46.65967222 -32.125 42.0625 C-32.9375 38.1875 -32.9375 38.1875 -33.125 35.0625 C-31.125 36.0625 -31.125 36.0625 -29.8125 39.3125 C-28.28971127 43.06922752 -26.23658654 45.41765144 -23.125 48.0625 C-17.64031732 49.89072756 -12.07904302 49.80858915 -6.6875 47.75 C-4.52113887 46.32337194 -2.80654736 45.02430526 -1.125 43.0625 C2.31095166 44.58958963 4.99412454 46.66177045 7.875 49.0625 C7.875 51.1875 7.875 51.1875 6.875 54.0625 C-0.81697358 61.41300746 -8.72995611 62.92637443 -19.125 63.0625 C-27.05716629 62.51165512 -33.38192787 58.86265601 -38.91796875 53.2421875 C-46.65385678 43.8063142 -46.99170086 32.74515267 -46.125 21.0625 C-45.01065272 14.49735322 -42.46650827 8.19207083 -38.125 3.0625 C-37.465 3.0625 -36.805 3.0625 -36.125 3.0625 C-36.125 2.4025 -36.125 1.7425 -36.125 1.0625 C-34.71171871 0.24412558 -33.29421654 -0.56696219 -31.875 -1.375 C-30.69164062 -2.05369141 -30.69164062 -2.05369141 -29.484375 -2.74609375 C-19.85071597 -7.61077257 -8.78357781 -5.44581824 0 0 Z " fill="#1A0DAF" transform="translate(205.125,98.9375)"/>
<path d="M0 0 C2.25837675 1.87698885 3.68899474 3.37798948 5 6 C5.07194869 8.88370333 5.09291708 11.74239664 5.0625 14.625 C5.05798828 15.42679688 5.05347656 16.22859375 5.04882812 17.0546875 C5.03703168 19.03649006 5.01909605 21.01825433 5 23 C9.29 23 13.58 23 18 23 C18 23.33 18 23.66 18 24 C13.05 24 8.1 24 3 24 C2.94392578 22.10314453 2.94392578 22.10314453 2.88671875 20.16796875 C2.82106167 18.5077827 2.75461424 16.84762778 2.6875 15.1875 C2.66494141 14.35412109 2.64238281 13.52074219 2.61914062 12.66210938 C2.58369141 11.85966797 2.54824219 11.05722656 2.51171875 10.23046875 C2.48553467 9.49207764 2.45935059 8.75368652 2.43237305 7.99291992 C1.88232398 5.45760061 1.07064269 4.5354686 -1 3 C-3.65623062 2.86019839 -5.99576962 2.89979699 -8.625 3.125 C-9.38353271 3.18284668 -10.14206543 3.24069336 -10.92358398 3.30029297 C-33.96540958 5.24883151 -59.94803549 10.80950115 -79.3671875 23.875 C-90.37558597 31.22720562 -90.37558597 31.22720562 -94.98828125 30.58203125 C-97.91307292 28.96581304 -100.37615355 27.06816509 -103 25 C-105.38186095 23.61035581 -107.75070989 22.2825872 -110.1875 21 C-110.80842529 20.66436035 -111.42935059 20.3287207 -112.0690918 19.98291016 C-119.09729086 16.2614138 -126.50015346 13.60178645 -134 11 C-134 10.67 -134 10.34 -134 10 C-128.39507309 9.51376817 -124.58615656 11.13234324 -119.625 13.4375 C-118.45710938 13.96742554 -118.45710938 13.96742554 -117.265625 14.50805664 C-109.24990035 18.21678847 -101.62423143 22.55577326 -94 27 C-93.34 27.33 -92.68 27.66 -92 28 C-89.50190371 26.60499912 -87.10418675 25.15082539 -84.6875 23.625 C-65.63364436 12.04992116 -45.47187763 5.49334669 -23.625 1.6875 C-22.16356567 1.42972778 -22.16356567 1.42972778 -20.67260742 1.16674805 C-6.52769282 -1.12666584 -6.52769282 -1.12666584 0 0 Z " fill="#2011B1" transform="translate(234,32)"/>
<path d="M0 0 C0.33 0 0.66 0 1 0 C1.14695313 0.68964844 1.29390625 1.37929687 1.4453125 2.08984375 C3.36946646 10.15138535 5.70546032 16.8362904 12.56640625 21.890625 C20.21372998 26.24888672 27.31845885 27.22574852 36 26 C39.52056327 24.96992622 42.7120702 23.60843717 46 22 C46.99 21.67 47.98 21.34 49 21 C49.33 19.35 49.66 17.7 50 16 C48.02 14.35 46.04 12.7 44 11 C44 11.66 44 12.32 44 13 C37.67239834 17.64024121 32.71780578 18.83403989 25 18 C19.63520836 16.19800665 16.06478148 12.59717222 13 8 C12.1875 4.125 12.1875 4.125 12 1 C14 2 14 2 15.3125 5.25 C16.83528873 9.00672752 18.88841346 11.35515144 22 14 C27.48468268 15.82822756 33.04595698 15.74608915 38.4375 13.6875 C40.60386113 12.26087194 42.31845264 10.96180526 44 9 C47.43595166 10.52708963 50.11912454 12.59927045 53 15 C53 17.125 53 17.125 52 20 C44.30802642 27.35050746 36.39504389 28.86387443 26 29 C18.08886249 28.45061545 11.51136353 24.83398881 6.171875 19.00390625 C1.21358116 12.63755323 -0.27162256 8.01286541 0 0 Z " fill="#0E04AC" transform="translate(160,133)"/>
<path d="M0 0 C2.35207684 3.52811525 2.24739546 4.95465175 2.24050903 9.13127136 C2.24325836 10.41434677 2.24600769 11.69742218 2.24884033 13.01937866 C2.24176201 14.44415376 2.23449239 15.86892792 2.22705078 17.29370117 C2.22648673 18.7916615 2.2268031 20.28962239 2.22793579 21.7875824 C2.22851055 25.85757115 2.21673634 29.92744245 2.20278788 33.99740386 C2.19030103 38.24950935 2.18911163 42.50161741 2.18673706 46.7537384 C2.18051627 54.80725548 2.16409736 62.86071837 2.14403808 70.91421157 C2.12169771 80.08217649 2.11069034 89.25014397 2.10064721 98.41812932 C2.07973164 117.27878362 2.04454404 136.13938746 2 155 C1.67 155 1.34 155 1 155 C0.99761165 154.22970553 0.99522329 153.45941107 0.99276257 152.66577435 C0.93367179 133.93799912 0.85815992 115.21035636 0.76428509 96.48272228 C0.71928579 87.42623748 0.67988075 78.36979237 0.65356445 69.31323242 C0.63061776 61.42114974 0.59725725 53.52919223 0.55129844 45.63720876 C0.52732111 41.45697969 0.50862199 37.27687492 0.50238609 33.0965786 C0.4963555 29.16408697 0.4764298 25.23191358 0.44572449 21.29953957 C0.43691158 19.85435823 0.43322838 18.40913536 0.43499184 16.96392822 C0.43663669 14.99436362 0.41822874 13.02481237 0.39872742 11.05534363 C0.39411845 9.95195743 0.38950949 8.84857122 0.38476086 7.71174908 C0.22038245 4.98212474 0.22038245 4.98212474 -1.39462566 3.14856434 C-3.48689223 1.65165318 -4.88959621 1.57417462 -7.44921875 1.48828125 C-8.29677734 1.45283203 -9.14433594 1.41738281 -10.01757812 1.38085938 C-11.33918945 1.34702148 -11.33918945 1.34702148 -12.6875 1.3125 C-13.58017578 1.27833984 -14.47285156 1.24417969 -15.39257812 1.20898438 C-17.59492671 1.12654352 -19.79687938 1.05738449 -22 1 C-22 0.67 -22 0.34 -22 0 C-6.23616236 -1.43911439 -6.23616236 -1.43911439 0 0 Z " fill="#0D00AE" transform="translate(260,56)"/>
<path d="M0 0 C2.25729512 1.87713435 3.68927545 3.3785509 5 6 C5.07194869 8.88370333 5.09291708 11.74239664 5.0625 14.625 C5.05798828 15.42679688 5.05347656 16.22859375 5.04882812 17.0546875 C5.03703168 19.03649006 5.01909605 21.01825433 5 23 C9.29 23 13.58 23 18 23 C18 23.33 18 23.66 18 24 C13.05 24 8.1 24 3 24 C2.94392578 22.10314453 2.94392578 22.10314453 2.88671875 20.16796875 C2.82106167 18.5077827 2.75461424 16.84762778 2.6875 15.1875 C2.65366211 13.93743164 2.65366211 13.93743164 2.61914062 12.66210938 C2.58369141 11.85966797 2.54824219 11.05722656 2.51171875 10.23046875 C2.48553467 9.49207764 2.45935059 8.75368652 2.43237305 7.99291992 C1.88232398 5.45760061 1.07064269 4.5354686 -1 3 C-3.65581565 2.86022023 -5.99608757 2.90069911 -8.625 3.125 C-9.37483154 3.17994629 -10.12466309 3.23489258 -10.8972168 3.29150391 C-22.37284701 4.23693595 -33.64229388 6.37020696 -44.6796875 9.64453125 C-47 10 -47 10 -50 8 C-41.40527059 5.15526562 -32.78577303 3.27574143 -23.875 1.75 C-22.88693359 1.57500977 -21.89886719 1.40001953 -20.88085938 1.21972656 C-6.54189266 -1.13846882 -6.54189266 -1.13846882 0 0 Z " fill="#2E23B4" transform="translate(234,32)"/>
<path d="M0 0 C24.61930486 -2.2025223 52.35473889 6.92329127 71.71484375 22.1328125 C73.53140883 23.70993578 75.29395319 25.30485444 77 27 C76.67 27.66 76.34 28.32 76 29 C75.44054687 28.5153125 74.88109375 28.030625 74.3046875 27.53125 C54.75641798 11.18864526 31.57128158 4.72867098 6.52246094 2.68286133 C4.67483747 2.51940483 2.83533633 2.26827422 1 2 C0.67 1.34 0.34 0.68 0 0 Z " fill="#2615B4" transform="translate(57,186)"/>
<path d="M0 0 C0.33 0 0.66 0 1 0 C2 5 2 5 2 19 C-11.86 19 -25.72 19 -40 19 C-40 18.34 -40 17.68 -40 17 C-26.8 17 -13.6 17 0 17 C-0.495 9.575 -0.495 9.575 -1 2 C-0.67 1.34 -0.34 0.68 0 0 Z " fill="#2515B2" transform="translate(213,114)"/>
<path d="M0 0 C2 1 2 1 3.3125 4.25 C4.83528873 8.00672752 6.88841346 10.35515144 10 13 C15.48468268 14.82822756 21.04595698 14.74608915 26.4375 12.6875 C28.60386113 11.26087194 30.31845264 9.96180526 32 8 C35.36591866 9.44253657 37.51047079 11.33264727 40 14 C36.64404172 13.40072174 34.62198774 12.15377564 32 10 C32 10.66 32 11.32 32 12 C25.67239834 16.64024121 20.71780578 17.83403989 13 17 C7.63520836 15.19800665 4.06478148 11.59717222 1 7 C0.1875 3.125 0.1875 3.125 0 0 Z " fill="#1B0BAE" transform="translate(172,134)"/>
<path d="M0 0 C0 0.33 0 0.66 0 1 C-7.80693095 3.04986455 -15.63683466 4.77020996 -23.5625 6.296875 C-26.34199898 6.86540888 -29.02606469 7.53137149 -31.75 8.3125 C-32.8225 8.539375 -33.895 8.76625 -35 9 C-35.99 8.34 -36.98 7.68 -38 7 C-30.4148432 4.63189241 -22.8806464 2.64711336 -15.0625 1.25 C-14.36584229 1.12262451 -13.66918457 0.99524902 -12.95141602 0.86401367 C-8.55521965 0.11370005 -4.43700174 -0.11569757 0 0 Z " fill="#2D1EB6" transform="translate(222,33)"/>
<path d="M0 0 C-3.30766134 2.20510756 -6.66529849 3.42199652 -10.375 4.75 C-17.78326673 7.45608462 -24.89414532 10.56874825 -32 14 C-32 13.01 -32 12.02 -32 11 C-29.33519728 9.72513415 -26.66828284 8.45504534 -24 7.1875 C-23.25621094 6.83107422 -22.51242188 6.47464844 -21.74609375 6.10742188 C-7.8266844 -0.48916777 -7.8266844 -0.48916777 0 0 Z " fill="#2818B4" transform="translate(187,41)"/>
<path d="M0 0 C-2.82838189 2.82838189 -6.33067514 4.02282756 -9.9375 5.625 C-17.35040195 8.99599892 -23.65729696 12.84912237 -30 18 C-30.66 17.67 -31.32 17.34 -32 17 C-24.34969773 9.77708892 -11.36549063 -1.46651492 0 0 Z " fill="#1C0EB3" transform="translate(184,194)"/>
<path d="M0 0 C2.23413013 3.35119519 2.23847762 4.4177755 2.1953125 8.32421875 C2.18886719 9.35224609 2.18242187 10.38027344 2.17578125 11.43945312 C2.15902344 12.51130859 2.14226562 13.58316406 2.125 14.6875 C2.11597656 15.77095703 2.10695313 16.85441406 2.09765625 17.97070312 C2.0740734 20.6473571 2.04116126 23.32356797 2 26 C1.67 26 1.34 26 1 26 C0.98541748 25.37955811 0.97083496 24.75911621 0.95581055 24.11987305 C0.88133412 21.30845367 0.78467436 18.49822251 0.6875 15.6875 C0.66494141 14.71103516 0.64238281 13.73457031 0.61914062 12.72851562 C0.5659668 11.32182617 0.5659668 11.32182617 0.51171875 9.88671875 C0.48553467 9.02264404 0.45935059 8.15856934 0.43237305 7.26831055 C-0.09346716 4.50965367 -0.71196816 3.60725279 -3 2 C-5.11615844 1.49945249 -5.11615844 1.49945249 -7.44921875 1.48828125 C-8.29677734 1.45283203 -9.14433594 1.41738281 -10.01757812 1.38085938 C-11.33918945 1.34702148 -11.33918945 1.34702148 -12.6875 1.3125 C-13.58017578 1.27833984 -14.47285156 1.24417969 -15.39257812 1.20898438 C-17.59492671 1.12654352 -19.79687938 1.05738449 -22 1 C-22 0.67 -22 0.34 -22 0 C-6.23616236 -1.43911439 -6.23616236 -1.43911439 0 0 Z " fill="#180AB2" transform="translate(260,56)"/>
<path d="M0 0 C5.1575281 0.47885725 8.72118709 2.34722468 12.9375 5.1875 C13.54996582 5.59025146 14.16243164 5.99300293 14.79345703 6.40795898 C19.1506189 9.31563138 23.15698596 12.43148696 27 16 C26.67 16.66 26.34 17.32 26 18 C25.46375 17.52691406 24.9275 17.05382812 24.375 16.56640625 C16.84798009 10.2154832 8.65247391 5.63755425 0 1 C0 0.67 0 0.34 0 0 Z " fill="#1408AD" transform="translate(107,197)"/>
<path d="M0 0 C1.91541138 -0.10841951 3.83259773 -0.18578079 5.75 -0.25 C7.35101563 -0.31960937 7.35101563 -0.31960937 8.984375 -0.390625 C12 0 12 0 14.328125 1.828125 C16 4 16 4 17 7 C14 6 14 6 12.82421875 4.44921875 C9.85375022 2.08938187 6.43313434 2.68917708 2.8125 2.8125 C1.68811523 2.83280273 1.68811523 2.83280273 0.54101562 2.85351562 C-1.30629767 2.88881461 -3.15324066 2.94262083 -5 3 C-5 2.67 -5 2.34 -5 2 C-3.35 2 -1.7 2 0 2 C0 1.34 0 0.68 0 0 Z " fill="#2A16B3" transform="translate(222,32)"/>
<path d="M0 0 C0.99773438 0.02320313 1.99546875 0.04640625 3.0234375 0.0703125 C4.52777344 0.09738281 4.52777344 0.09738281 6.0625 0.125 C6.83335938 0.14820313 7.60421875 0.17140625 8.3984375 0.1953125 C8.3984375 0.5253125 8.3984375 0.8553125 8.3984375 1.1953125 C7.77195312 1.24429688 7.14546875 1.29328125 6.5 1.34375 C5.68273438 1.41851562 4.86546875 1.49328125 4.0234375 1.5703125 C3.21132813 1.63992187 2.39921875 1.70953125 1.5625 1.78125 C-0.80490441 2.02423838 -0.80490441 2.02423838 -2.6015625 4.1953125 C-2.90831482 7.09499007 -3.11329621 9.91314428 -3.2265625 12.8203125 C-3.26523437 13.62210938 -3.30390625 14.42390625 -3.34375 15.25 C-3.43810181 17.23138806 -3.52092465 19.21331895 -3.6015625 21.1953125 C-3.9315625 21.1953125 -4.2615625 21.1953125 -4.6015625 21.1953125 C-4.65948094 18.07038999 -4.69512996 14.94560484 -4.7265625 11.8203125 C-4.74332031 10.93085937 -4.76007812 10.04140625 -4.77734375 9.125 C-4.78378906 8.27421875 -4.79023437 7.4234375 -4.796875 6.546875 C-4.80734863 5.76135254 -4.81782227 4.97583008 -4.82861328 4.16650391 C-4.4499472 0.87903088 -3.16923172 0.23793031 0 0 Z " fill="#1C0CB0" transform="translate(49.6015625,32.8046875)"/>
<path d="M0 0 C0.83265381 0.00523682 1.66530762 0.01047363 2.52319336 0.01586914 C3.42231445 0.0190918 4.32143555 0.02231445 5.24780273 0.02563477 C6.66609375 0.03820313 6.66609375 0.03820313 8.11303711 0.05102539 C9.06243164 0.05553711 10.01182617 0.06004883 10.98999023 0.06469727 C13.34356776 0.07652429 15.69702188 0.09300514 18.05053711 0.11352539 C18.05053711 0.44352539 18.05053711 0.77352539 18.05053711 1.11352539 C11.45053711 1.44352539 4.85053711 1.77352539 -1.94946289 2.11352539 C-2.60946289 3.76352539 -3.26946289 5.41352539 -3.94946289 7.11352539 C-4.60946289 6.78352539 -5.26946289 6.45352539 -5.94946289 6.11352539 C-2.4274158 0.14135859 -2.4274158 0.14135859 0 0 Z " fill="#1C0DB2" transform="translate(25.949462890625,55.886474609375)"/>
<path d="M0 0 C0 0.33 0 0.66 0 1 C-1.87077668 1.53580497 -3.7468917 2.05298887 -5.625 2.5625 C-6.66914063 2.85253906 -7.71328125 3.14257812 -8.7890625 3.44140625 C-12.19022902 4.03309337 -14.65448342 3.75851802 -18 3 C-12.48941507 -0.30635096 -6.25130334 -0.12757762 0 0 Z " fill="#3727BB" transform="translate(222,33)"/>
<path d="M0 0 C8.57142857 -0.28571429 8.57142857 -0.28571429 12 2 C7.66726186 2.92844389 4.33273814 2.92844389 0 2 C0 1.34 0 0.68 0 0 Z " fill="#3626B8" transform="translate(67,34)"/>
<path d="M0 0 C2.43745955 1.78747034 2.97918528 3.5382534 3.875 6.375 C0.77004293 5.34001431 0.08850711 4.58850711 -2.125 2.375 C-4.22489652 1.19925289 -4.22489652 1.19925289 -6.125 0.375 C-3.73999846 -0.47678626 -2.4584349 -0.72306909 0 0 Z " fill="#180CAD" transform="translate(235.125,32.625)"/>
<path d="M0 0 C0.99 0.33 1.98 0.66 3 1 C0.36 2.98 -2.28 4.96 -5 7 C-5.66 6.67 -6.32 6.34 -7 6 C-5.90716423 4.96704564 -4.80029421 3.94892165 -3.6875 2.9375 C-3.07261719 2.36902344 -2.45773438 1.80054688 -1.82421875 1.21484375 C-0.92123047 0.61349609 -0.92123047 0.61349609 0 0 Z " fill="#1307AB" transform="translate(159,205)"/>
</svg>
